<svg xmlns="http://www.w3.org/2000/svg" width="900" height="720" viewBox="0 0 900 720" fill="none">
  <defs>
    <linearGradient id="canvas" x1="126" y1="54" x2="760" y2="658" gradientUnits="userSpaceOnUse">
      <stop stop-color="#111827"/>
      <stop offset="0.48" stop-color="#07111F"/>
      <stop offset="1" stop-color="#020617"/>
    </linearGradient>
    <linearGradient id="panel" x1="138" y1="89" x2="756" y2="618" gradientUnits="userSpaceOnUse">
      <stop stop-color="#172033" stop-opacity="0.96"/>
      <stop offset="1" stop-color="#07111F" stop-opacity="0.94"/>
    </linearGradient>
    <linearGradient id="panelStroke" x1="104" y1="72" x2="792" y2="650" gradientUnits="userSpaceOnUse">
      <stop stop-color="#E0E7FF" stop-opacity="0.30"/>
      <stop offset="0.52" stop-color="#38BDF8" stop-opacity="0.24"/>
      <stop offset="1" stop-color="#34D399" stop-opacity="0.14"/>
    </linearGradient>
    <linearGradient id="flowA" x1="181" y1="348" x2="719" y2="348" gradientUnits="userSpaceOnUse">
      <stop stop-color="#818CF8" stop-opacity="0"/>
      <stop offset="0.18" stop-color="#818CF8" stop-opacity="0.72"/>
      <stop offset="0.55" stop-color="#38BDF8" stop-opacity="0.78"/>
      <stop offset="0.86" stop-color="#34D399" stop-opacity="0.68"/>
      <stop offset="1" stop-color="#34D399" stop-opacity="0"/>
    </linearGradient>
    <linearGradient id="accentA" x1="202" y1="144" x2="344" y2="272" gradientUnits="userSpaceOnUse">
      <stop stop-color="#A5B4FC"/>
      <stop offset="1" stop-color="#38BDF8"/>
    </linearGradient>
    <linearGradient id="accentB" x1="566" y1="430" x2="716" y2="552" gradientUnits="userSpaceOnUse">
      <stop stop-color="#34D399"/>
      <stop offset="1" stop-color="#FBBF24"/>
    </linearGradient>
    <filter id="shadow" x="43" y="24" width="814" height="674" filterUnits="userSpaceOnUse" color-interpolation-filters="sRGB">
      <feFlood flood-opacity="0" result="BackgroundImageFix"/>
      <feColorMatrix in="SourceAlpha" type="matrix" values="0 0 0 0 0 0 0 0 0 0 0 0 0 0 0 0 0 0 127 0" result="hardAlpha"/>
      <feOffset dy="28"/>
      <feGaussianBlur stdDeviation="34"/>
      <feComposite in2="hardAlpha" operator="out"/>
      <feColorMatrix type="matrix" values="0 0 0 0 0.01 0 0 0 0 0.02 0 0 0 0 0.06 0 0 0 0.48 0"/>
      <feBlend mode="normal" in2="BackgroundImageFix" result="drop"/>
      <feBlend mode="normal" in="SourceGraphic" in2="drop" result="shape"/>
    </filter>
  </defs>

  <rect width="900" height="720" rx="56" fill="#020617"/>
  <rect width="900" height="720" rx="56" fill="url(#canvas)"/>

  <g opacity="0.42">
    <path d="M108 151H792" stroke="#94A3B8" stroke-opacity="0.08"/>
    <path d="M108 257H792" stroke="#94A3B8" stroke-opacity="0.08"/>
    <path d="M108 363H792" stroke="#94A3B8" stroke-opacity="0.08"/>
    <path d="M108 469H792" stroke="#94A3B8" stroke-opacity="0.08"/>
    <path d="M108 575H792" stroke="#94A3B8" stroke-opacity="0.08"/>
    <path d="M216 82V638" stroke="#94A3B8" stroke-opacity="0.07"/>
    <path d="M342 82V638" stroke="#94A3B8" stroke-opacity="0.07"/>
    <path d="M468 82V638" stroke="#94A3B8" stroke-opacity="0.07"/>
    <path d="M594 82V638" stroke="#94A3B8" stroke-opacity="0.07"/>
    <path d="M720 82V638" stroke="#94A3B8" stroke-opacity="0.07"/>
  </g>

  <g filter="url(#shadow)">
    <rect x="94" y="70" width="712" height="580" rx="42" fill="#020617" fill-opacity="0.58" stroke="url(#panelStroke)" stroke-width="1.4"/>
    <rect x="122" y="98" width="656" height="524" rx="30" fill="#FFFFFF" fill-opacity="0.025" stroke="#FFFFFF" stroke-opacity="0.08"/>
  </g>

  <g>
    <rect x="151" y="134" width="250" height="190" rx="28" fill="url(#panel)" stroke="#FFFFFF" stroke-opacity="0.10"/>
    <rect x="181" y="166" width="78" height="10" rx="5" fill="#A5B4FC" fill-opacity="0.84"/>
    <rect x="181" y="194" width="158" height="8" rx="4" fill="#E2E8F0" fill-opacity="0.30"/>
    <rect x="181" y="216" width="122" height="8" rx="4" fill="#E2E8F0" fill-opacity="0.22"/>
    <rect x="181" y="238" width="178" height="8" rx="4" fill="#E2E8F0" fill-opacity="0.18"/>
    <rect x="181" y="270" width="82" height="20" rx="10" fill="#6366F1" fill-opacity="0.22" stroke="#A5B4FC" stroke-opacity="0.38"/>
    <rect x="277" y="270" width="64" height="20" rx="10" fill="#38BDF8" fill-opacity="0.16" stroke="#67E8F9" stroke-opacity="0.34"/>
    <path d="M347 166H370M347 184H370M347 202H370" stroke="#CBD5E1" stroke-opacity="0.35" stroke-width="5" stroke-linecap="round"/>
  </g>

  <g>
    <rect x="499" y="134" width="250" height="190" rx="28" fill="url(#panel)" stroke="#FFFFFF" stroke-opacity="0.10"/>
    <rect x="529" y="166" width="114" height="10" rx="5" fill="#38BDF8" fill-opacity="0.76"/>
    <rect x="529" y="198" width="166" height="96" rx="18" fill="#FFFFFF" fill-opacity="0.035" stroke="#FFFFFF" stroke-opacity="0.08"/>
    <path d="M557 263L586 229L623 252L665 210" stroke="#67E8F9" stroke-opacity="0.88" stroke-width="5" stroke-linecap="round" stroke-linejoin="round"/>
    <circle cx="557" cy="263" r="6" fill="#818CF8"/>
    <circle cx="586" cy="229" r="6" fill="#38BDF8"/>
    <circle cx="623" cy="252" r="6" fill="#34D399"/>
    <circle cx="665" cy="210" r="6" fill="#FBBF24"/>
  </g>

  <g>
    <rect x="151" y="396" width="250" height="190" rx="28" fill="url(#panel)" stroke="#FFFFFF" stroke-opacity="0.10"/>
    <rect x="181" y="428" width="112" height="10" rx="5" fill="#34D399" fill-opacity="0.72"/>
    <rect x="181" y="462" width="70" height="70" rx="20" fill="#34D399" fill-opacity="0.10" stroke="#6EE7B7" stroke-opacity="0.30"/>
    <rect x="272" y="462" width="70" height="70" rx="20" fill="#6366F1" fill-opacity="0.12" stroke="#A5B4FC" stroke-opacity="0.32"/>
    <path d="M216 486V508M205 497H227" stroke="#A7F3D0" stroke-opacity="0.70" stroke-width="4" stroke-linecap="round"/>
    <path d="M294 488L320 506M320 488L294 506" stroke="#C4B5FD" stroke-opacity="0.70" stroke-width="4" stroke-linecap="round"/>
    <rect x="181" y="552" width="172" height="8" rx="4" fill="#E2E8F0" fill-opacity="0.18"/>
  </g>

  <g>
    <rect x="499" y="396" width="250" height="190" rx="28" fill="url(#panel)" stroke="#FFFFFF" stroke-opacity="0.10"/>
    <rect x="529" y="428" width="92" height="10" rx="5" fill="#FBBF24" fill-opacity="0.76"/>
    <rect x="529" y="466" width="44" height="72" rx="12" fill="#FBBF24" fill-opacity="0.34"/>
    <rect x="591" y="488" width="44" height="50" rx="12" fill="#38BDF8" fill-opacity="0.32"/>
    <rect x="653" y="448" width="44" height="90" rx="12" fill="#34D399" fill-opacity="0.28"/>
    <path d="M529 558H706" stroke="#E2E8F0" stroke-opacity="0.20" stroke-width="6" stroke-linecap="round"/>
  </g>

  <g>
    <path d="M401 229C451 229 449 229 499 229" stroke="url(#flowA)" stroke-width="2.4" stroke-linecap="round"/>
    <path d="M276 324V360C276 380 292 396 312 396H568C588 396 604 380 604 360V324" stroke="url(#flowA)" stroke-width="2.4" stroke-linecap="round"/>
    <path d="M401 491C451 491 449 491 499 491" stroke="url(#flowA)" stroke-width="2.4" stroke-linecap="round"/>
    <rect x="418" y="318" width="64" height="84" rx="18" fill="#0F172A" stroke="#A5B4FC" stroke-opacity="0.34"/>
    <rect x="434" y="338" width="32" height="8" rx="4" fill="#C4B5FD" fill-opacity="0.70"/>
    <rect x="434" y="358" width="32" height="8" rx="4" fill="#67E8F9" fill-opacity="0.62"/>
    <rect x="434" y="378" width="32" height="8" rx="4" fill="#6EE7B7" fill-opacity="0.54"/>
    <circle cx="401" cy="229" r="8" fill="#818CF8"/>
    <circle cx="499" cy="229" r="8" fill="#38BDF8"/>
    <circle cx="276" cy="324" r="8" fill="#A5B4FC"/>
    <circle cx="604" cy="324" r="8" fill="#67E8F9"/>
    <circle cx="401" cy="491" r="8" fill="#34D399"/>
    <circle cx="499" cy="491" r="8" fill="#FBBF24"/>
  </g>

  <g opacity="0.78">
    <rect x="304" y="608" width="292" height="34" rx="17" fill="#FFFFFF" fill-opacity="0.07" stroke="#FFFFFF" stroke-opacity="0.12"/>
    <circle cx="328" cy="625" r="5" fill="#34D399"/>
    <path d="M350 625H548" stroke="#CBD5E1" stroke-opacity="0.46" stroke-width="6" stroke-linecap="round"/>
  </g>

  <g opacity="0.45">
    <path d="M110 88L132 88" stroke="url(#accentA)" stroke-width="4" stroke-linecap="round"/>
    <path d="M765 632L789 632" stroke="url(#accentB)" stroke-width="4" stroke-linecap="round"/>
  </g>
</svg>
