<svg width="917" height="380" viewBox="0 0 917 380" fill="none" xmlns="http://www.w3.org/2000/svg">
<rect width="917" height="380" fill="white"/>
<rect width="487" height="200" transform="translate(208 112)" fill="white"/>
<path opacity="0.9" d="M261.76 186.8H273.376L302.752 254H290.656L267.232 198.224L243.904 254H232.096L261.76 186.8ZM246.88 228.848H287.104V238.448H246.88V228.848ZM348.187 225.2C348.187 221.168 347.131 218.032 345.019 215.792C342.907 213.488 339.963 212.336 336.187 212.336C331.771 212.464 328.283 214.096 325.723 217.232C323.227 220.368 321.979 224.24 321.979 228.848H318.907C318.907 222.576 319.771 217.52 321.499 213.68C323.291 209.84 325.787 207.056 328.987 205.328C332.251 203.536 336.091 202.64 340.507 202.64C344.411 202.64 347.739 203.44 350.491 205.04C353.307 206.64 355.451 208.912 356.923 211.856C358.459 214.736 359.227 218.224 359.227 222.32V254H348.187V225.2ZM385.339 225.2C385.339 221.168 384.251 218.032 382.075 215.792C379.963 213.488 377.019 212.336 373.243 212.336C368.891 212.464 365.467 214.096 362.971 217.232C360.475 220.368 359.227 224.24 359.227 228.848H356.059C356.059 222.576 356.923 217.52 358.651 213.68C360.443 209.84 362.939 207.056 366.139 205.328C369.403 203.536 373.243 202.64 377.659 202.64C381.563 202.64 384.891 203.44 387.643 205.04C390.459 206.64 392.603 208.912 394.075 211.856C395.611 214.736 396.379 218.224 396.379 222.32V254H385.339V225.2ZM311.035 203.024H321.979V254H311.035V203.024ZM427.864 231.248C424.28 231.248 421.624 231.792 419.896 232.88C418.168 233.968 417.304 235.76 417.304 238.256C417.304 240.624 418.168 242.512 419.896 243.92C421.688 245.328 424.12 246.032 427.192 246.032C429.944 246.032 432.408 245.552 434.584 244.592C436.76 243.632 438.488 242.352 439.768 240.752C441.048 239.088 441.72 237.232 441.784 235.184L443.896 244.496C442.296 247.824 439.864 250.32 436.6 251.984C433.336 253.648 429.432 254.48 424.888 254.48C421.24 254.48 418.072 253.776 415.384 252.368C412.696 250.96 410.616 249.072 409.144 246.704C407.672 244.272 406.936 241.584 406.936 238.64C406.936 234.032 408.6 230.352 411.928 227.6C415.32 224.848 420.088 223.44 426.232 223.376H443.128V231.248H427.864ZM441.688 221.648C441.688 218.32 440.664 215.728 438.616 213.872C436.568 212.016 433.528 211.088 429.496 211.088C427.064 211.088 424.568 211.536 422.008 212.432C419.512 213.328 416.984 214.64 414.424 216.368L409.912 209.264C412.28 207.792 414.52 206.576 416.632 205.616C418.744 204.656 420.984 203.92 423.352 203.408C425.784 202.896 428.632 202.64 431.896 202.64C438.488 202.64 443.544 204.24 447.064 207.44C450.648 210.576 452.472 214.928 452.536 220.496L452.632 254H441.784L441.688 221.648ZM486.898 202.544C491.634 202.544 495.634 203.6 498.898 205.712C502.226 207.76 504.754 210.736 506.482 214.64C508.274 218.48 509.138 223.088 509.074 228.464C509.138 233.84 508.306 238.48 506.578 242.384C504.85 246.288 502.322 249.296 498.994 251.408C495.73 253.456 491.762 254.48 487.09 254.48C482.226 254.48 477.938 253.392 474.226 251.216C470.578 248.976 467.73 245.904 465.682 242C463.634 238.032 462.61 233.488 462.61 228.368C462.61 223.248 463.634 218.768 465.682 214.928C467.73 211.024 470.578 207.984 474.226 205.808C477.874 203.632 482.098 202.544 486.898 202.544ZM489.394 211.472C486.322 211.472 483.602 212.208 481.234 213.68C478.866 215.152 477.01 217.2 475.666 219.824C474.386 222.384 473.714 225.328 473.65 228.656C473.714 231.984 474.386 234.928 475.666 237.488C477.01 240.048 478.866 242.064 481.234 243.536C483.602 245.008 486.322 245.744 489.394 245.744C492.466 245.744 495.186 245.008 497.554 243.536C499.922 242.064 501.746 240.048 503.026 237.488C504.37 234.928 505.042 231.984 505.042 228.656C505.042 225.264 504.37 222.288 503.026 219.728C501.746 217.168 499.922 215.152 497.554 213.68C495.186 212.208 492.466 211.472 489.394 211.472ZM505.042 182.768H516.082V254H505.042V182.768ZM554.736 202.64C559.984 202.64 564.592 203.728 568.56 205.904C572.592 208.08 575.728 211.12 577.968 215.024C580.208 218.864 581.328 223.344 581.328 228.464C581.328 233.584 580.208 238.096 577.968 242C575.728 245.904 572.592 248.944 568.56 251.12C564.592 253.296 559.984 254.384 554.736 254.384C549.488 254.384 544.848 253.296 540.816 251.12C536.784 248.944 533.648 245.904 531.408 242C529.168 238.096 528.048 233.584 528.048 228.464C528.048 223.344 529.168 218.864 531.408 215.024C533.648 211.12 536.784 208.08 540.816 205.904C544.848 203.728 549.488 202.64 554.736 202.64ZM554.736 211.568C551.664 211.568 548.944 212.304 546.576 213.776C544.208 215.184 542.352 217.168 541.008 219.728C539.728 222.288 539.088 225.232 539.088 228.56C539.088 231.952 539.728 234.928 541.008 237.488C542.352 240.048 544.208 242.064 546.576 243.536C548.944 244.944 551.664 245.648 554.736 245.648C557.808 245.648 560.496 244.944 562.8 243.536C565.168 242.064 566.992 240.048 568.272 237.488C569.616 234.928 570.288 231.952 570.288 228.56C570.288 225.232 569.616 222.288 568.272 219.728C566.992 217.168 565.168 215.184 562.8 213.776C560.496 212.304 557.808 211.568 554.736 211.568ZM602.256 231.824C602.256 235.792 603.312 238.928 605.424 241.232C607.536 243.472 610.448 244.592 614.16 244.592C618.576 244.464 622 242.832 624.432 239.696C626.928 236.56 628.176 232.688 628.176 228.08H631.152C631.152 234.352 630.288 239.408 628.56 243.248C626.832 247.088 624.368 249.904 621.168 251.696C618.032 253.424 614.288 254.32 609.936 254.384C606.032 254.384 602.672 253.584 599.856 251.984C597.104 250.384 594.96 248.112 593.424 245.168C591.952 242.224 591.216 238.736 591.216 234.704V203.024H602.256V231.824ZM628.176 203.024H639.216V254H628.176V203.024Z" fill="black"/>
<path d="M68.774 134H156.226C184.815 134 208 154.393 208 179.539V256.461C208 281.607 184.815 302 156.226 302H68.774C40.185 302 17 281.607 17 256.461V179.539C17 154.393 40.185 134 68.774 134Z" fill="#F4F4F4" stroke="#F4F4F4" stroke-width="2" stroke-miterlimit="10"/>
<path d="M125.5 177.312C127.792 180.521 130.125 184.667 132.5 189.75C134.917 194.792 137.25 200.333 139.5 206.375C141.75 212.417 143.771 218.604 145.562 224.938C147.396 231.229 148.896 237.292 150.062 243.125C151.229 248.958 151.896 254.146 152.062 258.688C152.104 260.896 151.104 262 149.062 262H133.938C131.979 262 130.958 261.021 130.875 259.062C130.708 254.396 129.958 248.729 128.625 242.062H94.5C93.3333 248.562 92.6667 254.229 92.5 259.062C92.4167 261.021 91.3542 262 89.3125 262H74.5C73.75 262 73.125 261.792 72.625 261.375C72.125 260.917 71.8958 260.146 71.9375 259.062C72.1458 254.438 72.8125 249.188 73.9375 243.312C75.1042 237.396 76.6042 231.271 78.4375 224.938C80.2708 218.604 82.3125 212.417 84.5625 206.375C86.8125 200.292 89.1458 194.729 91.5625 189.688C93.9792 184.646 96.3333 180.521 98.625 177.312C99.8333 175.604 101.104 174.354 102.438 173.562C103.812 172.771 105.5 172.375 107.5 172.375H116.5C118.542 172.375 120.25 172.771 121.625 173.562C123 174.354 124.292 175.604 125.5 177.312ZM111.375 192.125C108.625 196.5 106.104 201.729 103.812 207.812C101.521 213.896 99.5417 220.146 97.875 226.562H125C123.25 220.146 121.229 213.896 118.938 207.812C116.646 201.729 114.25 196.5 111.75 192.125H111.375Z" fill="#415EFA"/>
</svg>
